# xmcd
#
# Track frame offsets: 
#        150
#        15197
#        34452
#        56420
#        76007
#        95057
#        111510
#        126555
#        143060
#        156135
#        176270
#        192962
#        210265
#
# Disc length: 3097 seconds
#
# Revision: 1
# Processed by: cddbd v1.5.2PL0 Copyright (c) Steve Scherf et al.
# Submitted via: ExactAudioCopy v1.0b3
#
DISCID=a70c170d
DTITLE=Sonny Rhodes - Out Of Control
DYEAR=1996
DGENRE=Blues
TTITLE0=Pickin' Your Bones
TTITLE1=Dollar Bill Woman
TTITLE2=Another You
TTITLE3=Out Of Control
TTITLE4=Drink Muddy Water
TTITLE5=Lifetime Thing
TTITLE6=Power Of The Boogie
TTITLE7=All I See Is Blue
TTITLE8=Have Love Will Travel
TTITLE9=Don't Have The Blues No More
TTITLE10=She's Excited
TTITLE11=Woman Abuse
TTITLE12=Waggin' My Tail
EXTD=
EXTT0=
EXTT1=
EXTT2=
EXTT3=
EXTT4=
EXTT5=
EXTT6=
EXTT7=
EXTT8=
EXTT9=
EXTT10=
EXTT11=
EXTT12=
PLAYORDER=
